<svg xmlns="http://www.w3.org/2000/svg" overflow="visible" viewBox="0 0 850.4 850.4"><path fill="none" stroke="#231f20" stroke-width="14" d="m478 340-96 134"/><path fill="#ffeec8" d="M679.2 208.8c3.6 3.6 2.5 10.8.7 14.7-5.5 12.4-3 17-3.7 26.5-.4 5.3-9.8 16.3-17 9.2 1-6.2 2-13.8 1.9-21.2q0-6.4-1.3-12.1v-.1c-1.8-8.1 4.6-20.9 15.2-19q2.7.5 4.2 2" class="aac-skin-fill"/><path fill="#ffeec8" d="M628.4 219.4a24 24 0 0 0-7.6-5.5q-3.3-1.5-7-1.4a17 17 0 0 0-13.6 8c-.7 1.2-1.7 2.1-.4 3 1.1.6 2.4.1 3.6.7.8.3 1.5 1.3 2.4 1.6q1.6.7 3.4 1c2.6.5 6 .4 8.4-.5 4.1-1.4 7.6-4 10.7-6.8zm-54.7 45c-7.5-4-5.5-13.5-4.4-19-.3 1-5.7 6.3-6.4 8-.8 2.4-.5 5.9.8 7.3 1.2 1.2 4.5 2.4 6 2.7 1.4.2 2.3.3 4 1m22.1-2c-3-1.5-7.1-2.4-9.6.8l-1.7 1a9 9 0 0 1-7.2 1.1c0 3.5-1.6 14-2.8 17.3v.6c-5.2 0-9.7 3.8-14.9 5.3q-1.8.6-3.8.6c4 1.4 7.7 3.4 11.9 4.4 6 1.5 12.7.3 18.8-.2 9.5-.8 18 .2 25.2-6.3l.9-.8c-8.7.2-15.3-2-21-2.8l.1-.7c-3-5.8-4.7-15.5-4.8-19.9 2-.8 4-.6 7.5-.5zm-72.4-1.9-.5-4.3c-.5-8.2-2.6-16.4-3.7-24.4q-.6-4.5-.6-8.9c0-7.5 1.4-16.2 1.4-32.7l8-13.2c34.1-34.2 54.7-7.7 70.4-11.8 6.1-1.6 12.9-3.1 18.5-6.3 3.5-2 10.1-10.2 14-8.7l.6.2s6.6 25.2 15.9 34.5 6.3 45.8 13.7 53.1c0 7.4-.9 15-1.9 21.2-1.2 7.2-2.5 12.5-2.6 13.3a44 44 0 0 1-6.4 12.9c-10 15.4-29.2 37.7-43 37.7-12 0-36 3.8-47.7-3.7l-1.7-1.3a154 154 0 0 1-21-29c-3-5.2-11.3-13.6-13.4-28.6m8.4-41.2.2.1q4.5 4.5 10.6 6.8c2.4.9 5.8 1 8.4.5q1.7-.3 3.4-1c.9-.3 1.6-1.2 2.4-1.6 1.2-.6 2.5 0 3.6-.8 1.3-.8.3-1.7-.4-3q-1.9-3.3-5.3-5.4a17 17 0 0 0-8.3-2.5q-3.7 0-7 1.4a23 23 0 0 0-7.6 5.5m42 86.2 18.4-1.5c-6.5-4.9-14-3-18.5 1.5" class="aac-skin-fill"/><path fill="#9e5c26" d="M661 238c-7.3-7.3-4.3-43.8-13.6-53-9.3-9.4-16-34.6-16-34.6l-.4-.2c-4-1.5-10.6 6.7-14.1 8.7-5.6 3.2-12.4 4.7-18.5 6.3-15.7 4.1-36.3-22.4-70.4 11.8l-8 13.2c0 16.5-1.4 25.3-1.4 32.7q0 4.4.6 8.9l-9-9.2c-1.4-20-2.4-59.1 9.4-76.1 25.8-37.3 58.1-39.9 103.9-34.6 34 4 63 34.6 55.7 97q-1.5-1.6-4.2-2.1c-10.6-1.9-17 10.9-15.3 19v.1q1.4 5.7 1.4 12.1"/><path fill="#ffeec8" d="M607.1 323.1c13.9 0 33.2-22.3 43.1-37.7 0 6.8 13.6 30.5 13.6 30.5 9 10.5 30.5 21.1 39.5 31l2 1.6a156 156 0 0 1-187.5 19.2l3.8-.7c16.6-17.4 36.6-39.6 37.5-46.7l.4-.9c11.6 7.5 35.6 3.7 47.6 3.7" class="aac-skin-fill"/><path fill="#231f20" d="M613.6 216q1.5.2 1.6 2-.1 1.7-1.6 1.8c-1 0-1.7-.9-1.7-1.9q.1-1.7 1.7-1.8"/><path fill="#231f20" d="M615.2 218q-.1-1.8-1.6-2-1.6.2-1.7 2 .1 1.7 1.7 1.8c.9 0 1.6-.9 1.6-1.9m-1.6-4.2c2.6 0 4.7 1.8 4.7 4.1s-2.1 4.2-4.7 4.2c-2.7 0-4.8-1.9-4.8-4.2s2.1-4.1 4.8-4.1"/><path fill="#9e5c26" d="M618.3 218c0-2.4-2.1-4.2-4.7-4.2-2.7 0-4.8 1.8-4.8 4.1s2.1 4.2 4.8 4.2 4.7-1.9 4.7-4.2m3-.4c0 4.1-3.6 7.4-7.8 7.4a7.6 7.6 0 0 1-7.8-7.4c0-1-.3-1 .2-2l-.4-.6q3.9-2.4 8.3-2.5 3.7 0 7 1.4l-.3.6c.9 1.2.7 1.6.7 3.1"/><path fill="#fff" d="M628.3 219.5c-3 2.8-6.6 5.4-10.7 6.8a17 17 0 0 1-8.4.5c-1-.2-2.4-.5-3.4-1-.9-.3-1.6-1.3-2.4-1.6-1.2-.6-2.5 0-3.6-.8-1.3-.8-.3-1.7.4-3q1.9-3.3 5.3-5.4l.4.7c-.5 1-.2.8-.2 2 0 4 3.5 7.3 7.8 7.3s7.7-3.3 7.7-7.4c0-1.5.2-1.9-.7-3l.3-.7q4.3 1.8 7.6 5.5zM592.2 304l-18.5 1.5c4.5-4.5 12-6.4 18.5-1.5"/><path fill="#ee947d" d="M590.8 283.3h.9c5.6.8 12.2 3 20.9 3l-.9.7a721 721 0 0 1-51.9 2.2l-.2-.7c5.2-1.4 9.7-5.2 14.9-5.3q2.1-.1 4.6 1c4.4 2 6.9-1.5 11.7-1"/><path fill="#ffeec8" d="m586.2 263.2.7-.4c.1 4.4 1.8 14.1 4.8 20v.6l-.9-.1c-4.8-.6-7.3 2.8-11.7.9q-2.5-1.1-4.6-1v-.6a80 80 0 0 0 2.8-17.3c2.5.5 5.3.3 7.2-1.1z" class="aac-skin-fill"/><path fill="#ee947d" d="M559.8 289.2c15.2 0 37.1-1 52-2.2-7.3 6.5-15.8 5.5-25.3 6.3-6 .5-12.8 1.7-18.8.2-4.2-1-8-3-12-4.4q2.1 0 3.9-.6z"/><path fill="#ffffc2" d="M559.1 320.3c-1 7.1-21 29.3-37.5 46.7l-3.8.7a156.2 156.2 0 0 1 81-290 156.3 156.3 0 0 1 106.6 270.8l-2.1-1.7c-9-9.8-30.5-20.5-39.5-31 0 0-13.7-23.6-13.6-30.4a44 44 0 0 0 6.4-12.9c.1-.8 1.4-6 2.6-13.3 7.2 7.1 16.6-4 17-9.2.7-9.5-1.8-14 3.7-26.5 1.8-4 3-11-.7-14.7 7.3-62.3-21.7-92.9-55.7-96.9-45.8-5.3-78-2.7-103.9 34.6-11.8 17-10.8 56-9.4 76.1 3.5 10.7.5 18.5 1.8 26 .7 4 5 11.5 11.4 12 2.1 15 10.5 23.3 13.4 28.5 2.6 4.9 14.3 23.4 21 29l1.7 1.3z"/><path fill="#231f20" d="M545 217.8q.1-1.7 1.7-1.8 1.5.2 1.7 1.8-.2 1.7-1.7 1.9-1.6-.2-1.7-1.9"/><path fill="#231f20" d="M551.4 217.8c0 2.3-2.1 4.2-4.7 4.2s-4.7-1.9-4.7-4.2 2-4.1 4.7-4.1 4.7 1.8 4.7 4.1m-6.4 0q.1 1.7 1.7 1.9 1.5-.2 1.7-1.9-.2-1.7-1.7-1.8-1.6.2-1.7 1.8"/><path fill="#9e5c26" d="M539.4 213.8q3.3-1.5 7-1.4 4.4.1 8.3 2.5l-.4.7c.5 1 .2.8.2 2 0 4-3.5 7.3-7.8 7.3s-7.7-3.3-7.7-7.4c0-1.5-.1-1.9.7-3zm7.3 8.2c2.6 0 4.7-1.9 4.7-4.2s-2.1-4.1-4.7-4.1-4.7 1.8-4.7 4.1 2 4.2 4.7 4.2"/><path fill="#fff" d="M539 217.5c0 4.1 3.5 7.4 7.7 7.4s7.8-3.3 7.8-7.4c0-1 .3-1-.2-2l.4-.6q3.3 2.1 5.3 5.4c.7 1.3 1.7 2.2.4 3-1 .7-2.4.2-3.6.8-.8.4-1.5 1.3-2.4 1.6q-1.6.7-3.4 1c-2.6.5-6 .4-8.4-.5a31 31 0 0 1-10.6-6.8l-.2-.1q3.4-3.7 7.6-5.5l.3.6c-.8 1.2-.7 1.6-.7 3.1"/><path fill="#ffeec8" d="M523 256.2q0 2.3.4 4.3c-6.3-.4-10.7-8-11.4-11.9-1.3-7.5 1.7-15.3-1.8-26l9 9.2c1.1 8 3.2 16.2 3.7 24.4" class="aac-skin-fill"/><g fill="none"><path stroke="#231f20" stroke-width="6" d="M565 208c-3.5-7.4-17.2-10.3-24-9a32 32 0 0 0-16.6 7.4m67.7.2c3.5-7.3 17.2-10.2 24-8.8 6.6 1.3 9.8 2 16.6 7.3"/><path stroke="#231f20" stroke-linecap="square" stroke-miterlimit="10" stroke-width="4.6" d="m530.4 220.9 1.4-1.6q3.3-3.7 7.6-5.5 3.3-1.5 7-1.4a17 17 0 0 1 13.6 8c.7 1.2 1.7 2.1.4 3-1 .6-2.4.1-3.6.7-.8.4-1.5 1.3-2.4 1.6q-1.6.7-3.4 1c-2.6.5-6 .4-8.4-.5a31 31 0 0 1-10.6-6.8"/><path stroke="#231f20" stroke-linecap="square" stroke-miterlimit="10" stroke-width="3" d="M554.3 215.6c.5 1 .2.8.2 2 0 4-3.5 7.3-7.8 7.3s-7.7-3.3-7.7-7.4c0-1.5-.1-1.9.7-3"/><path stroke="#231f20" stroke-linecap="square" stroke-miterlimit="10" stroke-width="4.6" d="m629.8 221-1.4-1.6a24 24 0 0 0-7.6-5.5q-3.3-1.5-7-1.4a17 17 0 0 0-13.6 8c-.7 1.2-1.7 2.1-.4 3 1.1.6 2.4.1 3.6.7.8.3 1.5 1.3 2.4 1.6q1.6.7 3.4 1c2.6.5 6 .4 8.4-.5 4.1-1.4 7.6-4 10.7-6.8"/><path stroke="#231f20" stroke-linecap="square" stroke-miterlimit="10" stroke-width="3" d="M606 215.7c-.6 1-.3.8-.3 2 0 4 3.5 7.3 7.8 7.3s7.7-3.3 7.7-7.4c0-1.5.2-1.9-.7-3"/><path stroke="#231f20" stroke-width="6.4" d="M679.2 208.9c7.3-62.4-21.7-93-55.7-97-45.8-5.3-78-2.7-103.9 34.6-11.8 17-10.8 56-9.4 76.1l9 9.2m140.5-6-1-3.7"/><path stroke="#231f20" stroke-width="6.4" d="M661 238c-7.3-7.3-4.3-43.8-13.6-53-9.3-9.4-16-34.6-16-34.6l-.4-.2c-4-1.5-10.6 6.7-14.1 8.7-5.6 3.2-12.4 4.7-18.5 6.3-15.7 4.1-36.3-22.4-70.4 11.8l-8 13.2c0 16.5-1.4 25.3-1.4 32.7q0 4.4.6 8.9c1.1 8 3.2 16.2 3.7 24.4l.5 4.3c2.1 15 10.5 23.4 13.4 28.6 2.6 4.9 14.3 23.4 21 29l1.7 1.3c11.6 7.5 35.6 3.7 47.6 3.7 13.9 0 33.2-22.3 43.1-37.7a44 44 0 0 0 6.4-12.9c.1-.7 1.4-6 2.6-13.3 1-6.2 2-13.8 1.9-21.2q0-6.4-1.3-12.1"/><path stroke="#231f20" stroke-width="6.4" d="M630.1 152.4a85 85 0 0 1 14-25"/><path stroke="#231f20" stroke-width="4.5" d="M555.8 289.1q2 0 3.8-.6c5.2-1.4 9.7-5.2 14.9-5.3q2.1-.1 4.6 1c4.4 2 6.9-1.5 11.7-1l.9.2c5.6.7 12.2 3 20.9 2.8l2.8-.1"/><path stroke="#231f20" stroke-width="4.5" d="m553 288.3 2.8.8c4 1.4 7.7 3.4 11.9 4.4 6 1.5 12.7.3 18.8-.2 9.5-.8 18 .2 25.2-6.3l1.5-1.5m-53.4 3.7c15.2 0 37.1-1 52-2.2"/><path stroke="#231f20" stroke-width="6" d="M566.6 211.2c9.6 7.3 5.2 26.9 2.7 34.2-.3 1-5.7 6.3-6.4 8-.8 2.4-.5 5.9.8 7.3 1.2 1.2 4.5 2.4 6 2.7 1.4.2 2.3.3 4 1q1.6.6 3.6 1c2.5.4 5.3.2 7.2-1.2l1.7-1 .7-.4c2-.8 4-.6 7.5-.4h1.4c3.5-.5 7-3.3 6.8-8.6-.2-4.2-3.3-2.2-5.6-5.2"/><path stroke="#231f20" stroke-width="6" d="M577.3 265.3c0 3.5-1.6 14-2.8 17.3m12.4-20.1v.3c.1 4.4 1.8 14.1 4.8 20m-22.3-37.9v.5c-1.2 5.5-3.2 15 4.3 19"/><path stroke="#231f20" stroke-width="6.4" d="M659.8 226v-.2c-1.8-8.1 4.6-20.9 15.2-19q2.7.5 4.2 2c3.6 3.6 2.5 10.8.7 14.7-5.5 12.4-3 17-3.7 26.5-.4 5.3-9.8 16.3-17 9.2m-149-36.6c3.5 10.7.5 18.5 1.8 26 .7 4 5 11.5 11.4 12h.6m126.2 24.8c0 6.8 13.6 30.5 13.6 30.5 9 10.5 30.5 21.1 39.5 31M559 320.2c-1 7.1-21 29.3-37.5 46.7"/><path stroke="#231f20" stroke-width="6" d="m585.5 264.2.7-1c2.5-3.2 6.6-2.3 9.6-.9l.6.3m-22.7 43c4.5-4.6 12-6.5 18.5-1.6"/><path stroke="#394ea1" stroke-dasharray="0 28" stroke-linecap="round" stroke-linejoin="round" stroke-width="26" d="M517.8 367.7a156.2 156.2 0 0 1 81-290 156.3 156.3 0 1 1-81 290"/></g><path fill="none" d="M0 0h850.4v850.4H0z"/><path fill="#ffeec8" d="M434.1 603.8a79 79 0 0 1 3.3 33c-.8 2.9-4.5 7-8 6.6-4-.5-4.9-9.7-6.8-12.6-3 .6-1.4 5-3.6 5-2-2-2.6-7.2-2.6-12.7 0-6.4 1-13.2 1.7-15.2z" class="aac-skin-fill"/><path fill="#abd153" d="M383.4 578.7c1.1 3 4 11.7 6 23.7l-1.1.2-92.3.4c1.7-15.1 4.6-24.2 4.6-24.2l-3.1-39.1-31 67.8-16-4s10-34.9 14.2-51.4c6-24.1 25.6-63.8 25.6-63.8 5-5 13.5-11 20.7-15.6 7-4.5 12.8-7.9 13.1-8q6.8 7.1 16.1 7.3c7.7 0 14.7-4.4 19.3-11.4l1.5.4 12.9 10c7 5.7 15.3 12.6 20.3 17.6 0 0 19.7 39.7 25.7 63.8a1869 1869 0 0 0 14.2 51.4l-16 4-31-67.8z"/><path fill="#231f20" d="M382.4 770.5c0 5.4 10.5 10.2 18.7 15 5.1 2.8 8 7.9 6.5 13.3-1.2 4.5-11.1 7-16.1 4.1-8.7-5-3-3.2-9.5-5.7-14-5.5-17.4-3.3-18.6-18z"/><path fill="#c8c8c8" d="M389.4 602.4a142 142 0 0 1 1.8 22.4c0 24.9-8 134.7-8.8 145.7l-19 8.7-.2-2.7-1.7-11.9L346.7 636h-7.4l-14.8 129-1.2 10.1q-.3 4.7-.8 7.7l-.5-.1-17.5-13.7v.5c-1.1-13.4-9.7-120.6-9.7-145.1q0-12.1 1.2-21.5l92.3-.4z"/><path fill="#ffeec8" d="M324.1 464.7a38 38 0 0 1-9.5-25.8c0-18.3 11.5-33.1 25.6-33.1s25.6 14.8 25.6 33.1a39 39 0 0 1-6.3 21.7 24 24 0 0 1-19.3 11.4 22 22 0 0 1-16-7.3" class="aac-skin-fill"/><path fill="#231f20" d="M304.5 769.6v-.5l17.5 13.7h.5c-1.7 9.3-5.8 8.3-18 13-6.5 2.6-.8.9-9.5 5.8-5 2.9-14.9.4-16.2-4.1-1.5-5.4 1.4-10.5 6.5-13.4 8-4.6 18.6-9.3 19.2-14.5"/><path fill="#ffeec8" d="M266.5 607.5c.8 2 1.6 8.8 1.6 15.3 0 5.4-.6 10.6-2.5 12.5-2.2 0-.7-4.3-3.6-4.9-2 3-2.8 12.2-6.7 12.6-3.6.4-7.3-3.7-8.1-6.6a78 78 0 0 1 3.3-33z" class="aac-skin-fill"/><g fill="none" stroke="#231f20"><path stroke-width="7" d="M324.1 464.7a38 38 0 0 1-9.5-25.8c0-18.3 11.5-33.1 25.6-33.1s25.6 14.8 25.6 33.1a39 39 0 0 1-6.3 21.7 24 24 0 0 1-19.3 11.4 22 22 0 0 1-16-7.3zm-73.6 138.7s10-34.8 14.2-51.3c6-24.1 25.6-63.8 25.6-63.8 5-5 13.5-11 20.7-15.6 7-4.5 12.8-7.9 13.1-8m-19.5 306.2-.1-1.3c-1.1-13.4-9.7-120.6-9.7-145.1q0-12.1 1.2-21.5c1.7-15.1 4.6-24.2 4.6-24.2l-3.1-39.1-31 67.8c.8 2 1.6 8.8 1.6 15.3 0 5.4-.6 10.6-2.5 12.5-2.2 0-.7-4.3-3.6-4.9-2 3-2.8 12.2-6.7 12.6-3.6.4-7.3-3.7-8.1-6.6a78 78 0 0 1 3.3-33m183.6.4S424 569 420 552.4c-6-24-25.7-63.8-25.7-63.8-5-5-13.3-11.9-20.3-17.5L361 461m22.2 119.1.2-1.4L387 540l31 67.9c-.8 2-1.7 8.8-1.7 15.2 0 5.5.7 10.7 2.6 12.6 2.2 0 .6-4.3 3.6-5 2 3 2.8 12.2 6.7 12.7 3.6.4 7.3-3.7 8.1-6.6a79 79 0 0 0-3.3-33"/><path stroke-width="7" d="M382.3 771.4v-.9c.9-11 8.9-120.8 8.9-145.7a142 142 0 0 0-7.8-46l-.5-1.3m-58.3 187.3v.4l-1.3 10q-.3 4.7-.8 7.7c-1.7 9.2-5.8 8.2-18 13-6.5 2.5-.8.8-9.5 5.7-5 2.9-14.9.4-16.2-4.1-1.5-5.4 1.4-10.5 6.5-13.4 8-4.6 18.6-9.3 19.2-14.5v-.5"/><path stroke-width="7" d="m361.5 764.6 1.7 12 .2 2.6c1.2 14.7 4.5 12.5 18.6 18 6.5 2.5.8.8 9.5 5.7 5 3 14.9.4 16.1-4 1.6-5.5-1.4-10.6-6.5-13.5-8.2-4.7-18.7-9.5-18.7-14.9m-20.9-5v-.9L346.7 636h-7.4l-14.9 129.2M296 603l92.3-.4"/><path stroke-width="4.1" d="m250.5 603.4 16 4m151.6.5 16-4M304.5 769l17.5 13.7m41.4-3.6 19-8.7"/></g></svg>