<svg xmlns="http://www.w3.org/2000/svg" overflow="visible" viewBox="0 0 850.9 850.9"><path fill="#fff" d="M508.3 699.6H89.9V168.8h665v530.8h-84.6V430.3h-162zm-88.6-253.4h-87.5v-31H381a12 12 0 0 0 12-12V282.5a12 12 0 0 0-12-12H214.9a12 12 0 0 0-12 12v120.7a12 12 0 0 0 12 12H264v31h-87.4l-.4 94.6h-11.7c-5.6 0-8.7 3.1-10.1 10.2l-9.6 37c-1.2 9.3 4.6 10.2 10.2 10.2h-10v20.3h307.2v-20.3h-10.1c5.6 0 11.3-.9 10.2-10.2l-9.6-37c-1.5-7.1-4.5-10.2-10.2-10.2h-14.3z"/><path fill="#c8c8c8" d="M430.7 598.2H155c-5.6 0-11.4-.9-10.2-10.2l9.6-37c1.4-7.1 4.5-10.2 10.1-10.2h268c5.6 0 8.7 3.1 10.2 10.2l9.6 37c1.1 9.3-4.6 10.2-10.2 10.2z"/><path fill="#787878" d="m419.7 446.2-1.4 94.6h-242l.4-94.6zm-21.1 61.4v-13.4h-74.9v13.4zm0-30V464H352v13.5z"/><path fill="#33a02c" d="M670.3 698.3v1.3h-162V430.3h162zm-36-158v-70l-94 2v68zm-72 50c0-7.4-5.4-13.4-12-13.4s-12.2 6-12.2 13.4c0 7.3 5.5 13.3 12.1 13.3s12.2-6 12.2-13.4"/><path fill="#231f20" d="M634.3 470.3v70h-94v-68zm-84 106.6c6.6 0 12 6 12 13.4 0 7.3-5.4 13.3-12 13.3s-12.2-6-12.2-13.4c0-7.3 5.5-13.3 12.1-13.3"/><path fill="#787878" d="M452.3 598.2v20.3H145v-20.3h297z"/><path fill="#c8c8c8" d="M323.7 494.2h74.9v13.4h-74.9zm28.3-30h46.6v13.4H352zm41-181.7v120.7a12 12 0 0 1-12 12H214.9a12 12 0 0 1-12-12V282.5a12 12 0 0 1 12-12H381a12 12 0 0 1 12 12m-12.4 120.8a5 5 0 1 0-9.9 0 5 5 0 0 0 5 5 5 5 0 0 0 4.9-5m-5-12.2V287.5H220.7V391zm-6.1 12.3a5 5 0 0 0-5-5 5 5 0 0 0-5 5 5 5 0 1 0 10 0"/><path fill="#231f20" d="M375.7 398.4a5 5 0 1 1 0 9.9 5 5 0 0 1-5-5 5 5 0 0 1 5-5"/><path fill="#fff" d="M220.8 287.5h154.7V391H220.8z"/><path fill="#231f20" d="M364.5 398.5a5 5 0 0 1 5 4.9 5 5 0 1 1-5-5"/><path fill="#fff" d="M332.2 420.7v25.5h-68.1v-31h68.1z"/><g fill="none" stroke="#231f20"><path stroke-width="21" d="M670.3 698.3v-268h-162v264"/><path stroke-width="28" d="M508.3 699.6H89.9V168.8h665v530.8h-84.6z"/><path stroke-width="12.5" d="M264 415.3h-49a12 12 0 0 1-12-12.1V282.5a12 12 0 0 1 12-12h166a12 12 0 0 1 12 12v120.7a12 12 0 0 1-12 12z"/><path stroke-width="12.5" d="M220.8 287.5h154.7V391H220.8zm111.4 133.1v25.6m-68.1 0v-25.6m-87.9 121.6v-1.4l.5-94.6h243l-1.4 94.6v1.4"/><path stroke-width="12.5" d="M323.7 494.2h74.9v13.4h-74.9zm28.3-30h46.6v13.4H352zm-197 134c-5.5 0-11.3-.9-10-10.2l9.5-37c1.4-7.1 4.5-10.2 10.1-10.2h259.2m1.8 57.4h16.6c5.6 0 11.3-.9 10.2-10.2l-9.6-37c-1.5-7.1-4.5-10.2-10.2-10.2h-8.8"/><path stroke-dasharray="21.9" stroke-width="14.6" d="M188.2 556h236.5m-236.5 25.2h237.4"/><path stroke-width="12.5" d="M442.2 598.2h10v20.3h-307v-20.3h285.5z"/></g><path fill="none" d="M.3.3h850.3v850.3H.3z"/></svg>