<svg xmlns="http://www.w3.org/2000/svg" overflow="visible" viewBox="0 0 850.4 850.4"><path fill="#ef947d" d="M251 460c4 0 7.5 4.5 7.5 10s-3.4 10-7.6 10-7.5-4.5-7.5-10 3.4-10 7.5-10m26.8-7.2c4.2 0 7.5 4.5 7.5 10s-3.3 9.9-7.5 9.9c-4.1 0-7.5-4.4-7.5-10 0-5.4 3.4-9.9 7.5-9.9"/><path fill="#ffeec8" d="M291.9 437.5c4.7 17 6.6 39.8-2.8 46.7-21 15.6-33.9 21-51.6 6L233 486a47 47 0 0 1 19.5-53.4c12.7-7.6 34.5 2.4 39.4 4.8m-6.6 25.3c0-5.5-3.3-10-7.5-10-4.1 0-7.5 4.5-7.5 10s3.4 9.9 7.5 9.9c4.2 0 7.5-4.4 7.5-10m-26.8 7.2c0-5.5-3.4-10-7.6-10s-7.5 4.5-7.5 10 3.4 10 7.5 10c4.2 0 7.6-4.5 7.6-10m-95.1-118c5.8 11 8.6 24.6 10.5 38.4-2.4 7.5-11.4 24.7-43.8 23.5-40.5-1.6-56-78.5-59.1-88.1-3.3-9.7-10.2-21 6.4-16.2l15 4.2c23.4 6.8 60.8 19.2 71 38.3m187 21.6c-29 8-43.2-11.8-53.8-29 0 0-20.4-17.2 2.2-37.1s62.3-23.6 72.5-34.4 1.6 15 4.8 30 3.2 62.4-25.8 70.5M677 501.4c4.3 18.3 4.8 45.2 3.2 78a377 377 0 0 1-3.7 41.9c-7.6 12.8-18.3 24.1-33.4 24.1s-19.3-1.6-10.7-12.4c8.6-10.7 16.6-34.3 19.3-53.1s10.8-65.6-.5-83.3-50-62.9-50-62.9l-5.3-2.5c22.7-9.3 41.3-16.3 41.3-16.3l1.6-1.4 2.2 4.1c12.3 25.3 31.7 65.6 36 83.8"/><path fill="#ffeec8" d="M628.5 401.2q5.8 4.9 10.3 12.3l-1.6 1.4s-18.6 7-41.3 16.3q-10.5 4.2-21.6 9c-10.4 4.5-25 9-41.4 13.5l-.5-1.7s21-23.6 46.2-45.7c18.5-16 36.6-16 49.9-5.1"/><path fill="#ffeec8" d="M296.6 344.6c10.6 17.2 24.7 37 53.7 29s29-55.4 25.8-70.4 5.4-40.8-4.8-30-50 14.4-72.5 34.3c-22.6 19.9-2.2 37-2.2 37m-1.5 25.8c-14.6.7-11.8 27.3-11.8 27.3s8.4 12.2 15.2-5c6.7-17.3 11.2-23-3.4-22.3M233 486l4.5 4c17.7 15.1 30.6 9.7 51.6-5.9 9.4-7 7.5-29.7 2.8-46.7-4.9-2.4-26.7-12.4-39.4-4.8A47 47 0 0 0 233 486m-11.8-74.8s-7-22-21-16.1c-14.2 5.8-7.9 8.3 4.7 18.8s16.3-2.7 16.3-2.7M163.4 352c-10.2-19.1-47.6-31.5-71-38.3v-.4s45.5-3 76.9 14c18.8 10.2 34.9-10.2 34.9-10.2s26.3-23.7 67.7-35.5c0 0 100.5-34.4 117.1-43.5 16.7-9.1 163.3-47.8 204.7-49.4s110.1 9.6 136 67.1l1.8 4.6c22.8 56.3 2.8 118.7-4 149-7 31.2-.6 43 4.8 55.4s-15.6 97.2-8.6 117.1-1 24.5-7 34.4a323 323 0 0 1-10.2 16.5c-1.6 2.3-2.7 3.4-7 9.3 0 0-37 5.9-30-1.6q4.7-5.3 7-19.3 2.5-15.8 3.7-42c1.6-32.7 1-59.6-3.2-77.9-4.3-18.2-23.7-58.5-36-83.8l-2.2-4q-4.5-7.5-10.3-12.4c-13.3-11-31.4-11-49.9 5.1a575 575 0 0 0-46.2 45.7l.5 1.7c-48 12.8-110.8 23.4-125.6 23-20-.5-64 93-76.9 100.5s-22 54.8-28.4 69.3c-6.5 14.5-9.2 12.3-14.5 5.4s-16.2 12.3-16.2 12.3h-44l9.7-14h-12.4s22.7-33.3 24.2-59c2.1-37.1-2.7-78.5-2.7-78.5l.3-1.6q-7.4-1.5-15.9-4.3c-52.1-17.7-43.5-46.7-50-70.4a215 215 0 0 1-4.7-30q-.8-8-2-16a115 115 0 0 0-10.4-38.3"/><path fill="#231f20" d="M295.1 370.4c14.6-.8 10.1 5 3.4 22.2-6.8 17.3-15.2 5-15.2 5s-2.8-26.5 11.8-27.2m-95 24.8c14.2-5.9 21 16.1 21 16.1s-3.5 13.3-16.2 2.8-19-13-4.8-19"/><g fill="none" stroke="#231f20"><path stroke-width="14" d="M313.8 370.4s23.6 70.9 6.4 100.4c-15.3 26.4-33.2 48.4-73.8 40.3q-7.4-1.5-15.9-4.3c-52.1-17.7-43.5-46.7-50-70.4a215 215 0 0 1-4.7-30q-.8-8-2-16a115 115 0 0 0-10.4-38.3c-10.2-19.1-47.6-31.5-71-38.3l-15-4.2c-16.6-4.8-9.7 6.5-6.4 16.2s18.6 86.5 59 88c32.5 1.3 41.5-16 43.9-23.4q.8-3.2.7-3.4"/><path stroke-width="14" d="M296.6 344.6s-20.4-17.2 2.2-37.1 62.3-23.6 72.5-34.4 1.6 15 4.8 30 3.2 62.4-25.8 70.5c-29 8-43.1-11.8-53.7-29zm13.4 23.6s-32.7-12.4-35.4 8c-2 15.7 4.3 32.8 11.8 46.8q3 5.6 5.5 14.5c4.7 17 6.6 39.8-2.8 46.7-21 15.6-33.9 21-51.6 6L233 486c-14.3-13.6-19.4-26.7-17-43.8"/><path stroke-width="13" d="m292.8 438-1-.5c-4.8-2.4-26.6-12.4-39.3-4.8a47 47 0 0 0-19.3 54.2"/><path stroke-width="14" d="m175.2 409 .6-2.6c1.8-7 8-25.5 24.6-22.6 21.5 3.7 31.7 37.6 31.7 37.6"/><path stroke-width="13" d="M258.5 470c0 5.5-3.4 10-7.6 10s-7.5-4.5-7.5-10 3.4-10 7.5-10c4.2 0 7.6 4.5 7.6 10zm11.8-7.2c0 5.4 3.3 9.9 7.5 9.9s7.5-4.4 7.5-10c0-5.4-3.3-9.9-7.5-9.9s-7.5 4.5-7.5 10z"/><path stroke-width="14" d="M237.5 650.3h-12.9s22.7-33.4 24.2-59.1c2.1-37.1-2.7-78.5-2.7-78.5"/><path stroke-width="14" d="M309 506.3S292.3 562 285.8 576c-4.6 10.2-33.4 52-48.8 74.2l-9.7 14h44s10.8-19.4 16.2-12.4 8 9 14.5-5.4 15.5-61.8 28.4-69.3c13-7.5 57-101 76.9-100.5 14.8.4 77.6-10.2 125.6-23 16.4-4.4 31-9 41.4-13.5a1246 1246 0 0 1 63-25.3"/><path stroke-width="14" d="M532.5 452s20.9-23.6 46.2-45.7c18.4-16 36.5-16 49.8-5.1q5.8 4.8 10.3 12.3l2.2 4.1c12.3 25.3 31.7 65.6 36 83.8s4.8 45.2 3.2 78a377 377 0 0 1-3.7 41.9q-2.3 13.9-7 19.3c-7 7.5 30 1.6 30 1.6 4.3-6 5.4-7 7-9.3s3.8-5.8 10.2-16.5c6-10 14-14.5 7-34.4s14-104.7 8.6-117.1-11.8-24.2-4.8-55.3c6.8-30.4 26.8-92.8 4-149.1l-1.9-4.6c-25.8-57.5-94.5-68.8-136-67.1-41.3 1.6-188 40.2-204.6 49.4s-117.1 43.5-117.1 43.5c-41.4 11.8-67.7 35.5-67.7 35.5s-16.1 20.4-35 10.2c-31.3-17-76.7-14-76.7-14"/><path stroke-width="14" d="M601.2 433.7s38.7 45.2 50 62.9 3.2 64.5.5 83.3-10.7 42.4-19.3 53.2c-8.6 10.7-4.3 12.3 10.7 12.3s25.8-11.3 33.3-24.2m54.3-358.8.8-2c5.6-10.8 19.5-18.8 30.1-23 13.1-5.2 20.5 3 21.7 15.4 1 10.4-2.4 24.7-15.2 25.6-10 .6-17.5-11.3-8.4-18.1 1-.8 3-1.2 4.3-1.7m-172 89.2s22.4 33.4 36.5 53.4l6 8.4"/><path stroke-linecap="round" stroke-linejoin="round" stroke-width="13" d="M332.2 305.3c-9 11.9-22.8 20.7-8.7 44.5 6 10.4 9.7 24 29.3 20.7"/></g><path fill="none" d="M0 0h850.4v850.4H0z"/></svg>